<?xml version="1.0" encoding="iso-8859-1"?>
<!-- Uploaded to: SVG Repo, www.svgrepo.com, Generator: SVG Repo Mixer Tools -->
<svg fill="#000000" height="800px" width="800px" version="1.1" id="Layer_1" xmlns="http://www.w3.org/2000/svg" xmlns:xlink="http://www.w3.org/1999/xlink" 
	 viewBox="0 0 512 512" xml:space="preserve">
<g>
	<g>
		<path d="M426.667,234.667H399.36l-14.059-42.219h105.365c11.797,0,21.333-9.557,21.333-21.333
			c0-11.797-9.536-21.333-21.333-21.333H369.323c-14.741-26.24-42.496-43.115-73.429-43.115h-101.12
			c-36.373,0-68.544,23.189-80.043,57.707l-23.424,70.293h-5.973C38.272,234.667,0,272.939,0,320s38.272,85.333,85.333,85.333
			h341.333C473.728,405.333,512,367.061,512,320S473.728,234.667,426.667,234.667z M128,341.333
			c-11.776,0-21.333-9.557-21.333-21.333s9.557-21.333,21.333-21.333s21.333,9.557,21.333,21.333S139.776,341.333,128,341.333z
			 M256,341.333c-11.776,0-21.333-9.557-21.333-21.333s9.557-21.333,21.333-21.333s21.333,9.557,21.333,21.333
			S267.776,341.333,256,341.333z M277.333,213.333h-49.621c-11.797,0-21.333-9.557-21.333-21.333s9.536-21.333,21.333-21.333h49.621
			c11.797,0,21.333,9.557,21.333,21.333S289.131,213.333,277.333,213.333z M384,341.333c-11.776,0-21.333-9.557-21.333-21.333
			s9.557-21.333,21.333-21.333s21.333,9.557,21.333,21.333S395.776,341.333,384,341.333z"/>
	</g>
</g>
</svg>